#!OML:ASF G:\JayActor3\Patient Classification 1\Patient 1\Session 6\male.ASF
:FULLY-SPECIFIED
:DEGREES
667
root 30.6842 15.5989 -11.534 -154.704 -51.1868 -179.417
lowerback 28.2237 -0.0561834 7.17052
upperback 1.01225 1.87495 -0.31584
thorax -13.603 0.262822 -4.92688
lowerneck 5.77881 17.165 7.70391
upperneck -11.9213 22.7314 -13.3468
head -2.03917 11.6397 -5.47298
rclavicle -1.74931e-014 -6.36111e-015
rhumerus -52.0329 -1.09279 -85.5778
rradius 76.5671
rwrist -4.2732
rhand -24.1542 3.50765
rfingers 7.12502
rthumb 2.32841 -26.4594
lclavicle -1.74931e-014 -6.36111e-015
lhumerus -63.1065 -29.2868 94.663
lradius 79.0138
lwrist 35.8895
lhand -25.9648 -4.05808
lfingers 7.12502
lthumb 0.579779 25.9209
rfemur -61.9372 0.409278 19.6167
rtibia 54.0581
rfoot -17.3264 -7.94879
rtoes 5.91278
lfemur -55.5327 2.72543 -24.6574
ltibia 44.246
lfoot -13.2155 -11.0884
ltoes 8.40577
668
root 30.7026 15.5606 -11.5355 -154.228 -51.467 -179.712
lowerback 28.3483 -0.124408 7.16886
upperback 1.08389 1.78189 -0.343889
thorax -13.5896 0.220306 -4.92135
lowerneck 5.77983 17.1818 7.67061
upperneck -11.9246 22.7495 -13.4264
head -2.03209 11.6557 -5.4896
rclavicle 6.75868e-015 -2.78299e-014
rhumerus -51.8496 -0.97103 -85.6671
rradius 76.5834
rwrist -4.03315
rhand -24.4243 3.55605
rfingers 7.12502
rthumb 2.0676 -26.4137
lclavicle 6.75868e-015 -2.78299e-014
lhumerus -63.0101 -29.2387 94.6582
lradius 78.7699
lwrist 35.8517
lhand -26.2242 -4.54197
lfingers 7.12502
lthumb 0.329218 25.4375
rfemur -62.6623 0.0210779 19.6498
rtibia 54.7567
rfoot -17.5307 -7.86941
rtoes 5.89335
lfemur -56.2922 2.7211 -24.924
ltibia 44.9031
lfoot -13.1869 -11.4084
ltoes 8.87412
669
root 30.7193 15.5267 -11.5396 -153.843 -51.7405 -179.929
lowerback 28.4828 -0.190426 7.19322
upperback 1.14511 1.70351 -0.359232
thorax -13.5901 0.18234 -4.92175
lowerneck 5.79218 17.1927 7.64244
upperneck -11.9081 22.7636 -13.4794
head -2.0241 11.6685 -5.49989
rclavicle 2.06736e-014 2.06736e-014
rhumerus -51.6509 -0.871998 -85.7418
rradius 76.503
rwrist -3.81485
rhand -24.6457 3.60155
rfingers 7.12502
rthumb 1.85372 -26.3701
lclavicle 2.06736e-014 2.06736e-014
lhumerus -62.8754 -29.2002 94.6632
lradius 78.4559
lwrist 35.8836
lhand -26.4774 -5.03515
lfingers 7.12502
lthumb 0.0846421 24.9446
rfemur -63.2846 -0.289545 19.7103
rtibia 55.3658
rfoot -17.7301 -7.83305
rtoes 5.86943
lfemur -56.9672 2.72913 -25.1231
ltibia 45.5035
lfoot -13.1733 -11.7136
ltoes 9.29423
670
root 30.7344 15.4973 -11.5461 -153.532 -51.9957 -180.072
lowerback 28.613 -0.247509 7.23138
upperback 1.19868 1.64306 -0.364891
thorax -13.5945 0.151626 -4.92571
lowerneck 5.81274 17.1982 7.6199
upperneck -11.8916 22.7721 -13.5178
head -2.01924 11.6775 -5.50811
rclavicle 0 -7.71285e-014
rhumerus -51.4385 -0.799359 -85.8023
rradius 76.3388
rwrist -3.66291
rhand -24.8165 3.65823
rfingers 7.12502
rthumb 1.68875 -26.3148
lclavicle 0 -7.71285e-014
lhumerus -62.6982 -29.168 94.6681
lradius 78.0938
lwrist 35.991
lhand -26.7213 -5.51838
lfingers 7.12502
lthumb -0.15088 24.4613
rfemur -63.8245 -0.523973 19.7918
rtibia 55.8919
rfoot -17.915 -7.82733
rtoes 5.83456
lfemur -57.5735 2.74911 -25.2593
ltibia 46.0495
lfoot -13.1781 -11.9885
ltoes 9.6352
671
root 30.748 15.4717 -11.5544 -153.27 -52.2103 -180.154
lowerback 28.7158 -0.283992 7.2653
upperback 1.24693 1.60731 -0.367053
thorax -13.5894 0.132944 -4.93251
lowerneck 5.83499 17.1977 7.6003
upperneck -11.8891 22.7723 -13.5461
head -2.02057 11.6816 -5.51551
rclavicle 2.34566e-014 3.57812e-014
rhumerus -51.2185 -0.756087 -85.8486
rradius 76.1118
rwrist -3.59551
rhand -24.9171 3.72882
rfingers 7.12502
rthumb 1.59166 -26.245
lclavicle 2.34566e-014 3.57812e-014
lhumerus -62.4796 -29.1418 94.6659
lradius 77.7066
lwrist 36.1696
lhand -26.9288 -5.94361
lfingers 7.12502
lthumb -0.351344 24.0358
rfemur -64.3148 -0.6818 19.882
rtibia 56.3472
rfoot -18.0782 -7.83792
rtoes 5.80241
lfemur -58.1352 2.78256 -25.3448
ltibia 46.5433
lfoot -13.1946 -12.2223
ltoes 9.91711
672
root 30.7602 15.4493 -11.5643 -153.039 -52.4033 -180.209
lowerback 28.8016 -0.308747 7.29303
upperback 1.29342 1.58402 -0.368254
thorax -13.5771 0.120692 -4.93938
lowerneck 5.86055 17.1915 7.58445
upperneck -11.9094 22.7636 -13.5708
head -2.03014 11.6807 -5.52468
rclavicle 3.33958e-014 1.51076e-014
rhumerus -50.9965 -0.731261 -85.8864
rradius 75.84
rwrist -3.61673
rhand -24.99 3.79189
rfingers 7.12502
rthumb 1.52127 -26.1824
lclavicle 3.33958e-014 1.51076e-014
lhumerus -62.227 -29.1233 94.6532
lradius 77.3149
lwrist 36.3956
lhand -27.0872 -6.27609
lfingers 7.12502
lthumb -0.504354 23.7031
rfemur -64.7523 -0.790578 19.9675
rtibia 56.7439
rfoot -18.2284 -7.86507
rtoes 5.78137
lfemur -58.6441 2.80732 -25.3948
ltibia 46.9849
lfoot -13.2122 -12.4192
ltoes 10.1564
673
root 30.7705 15.4305 -11.5753 -152.836 -52.587 -180.257
lowerback 28.8753 -0.328901 7.32077
upperback 1.34666 1.56494 -0.370084
thorax -13.5507 0.110996 -4.94812
lowerneck 5.87491 17.1804 7.56911
upperneck -11.9488 22.7462 -13.5947
head -2.0446 11.6747 -5.53422
rclavicle 5.32743e-014 -7.95139e-016
rhumerus -50.7693 -0.719678 -85.9149
rradius 75.5375
rwrist -3.71414
rhand -25.0426 3.85294
rfingers 7.12502
rthumb 1.47042 -26.1217
lclavicle 5.32743e-014 -7.95139e-016
lhumerus -61.9376 -29.1113 94.6221
lradius 76.9312
lwrist 36.6276
lhand -27.1761 -6.52393
lfingers 7.12502
lthumb -0.590195 23.455
rfemur -65.125 -0.880067 20.0462
rtibia 57.0896
rfoot -18.3688 -7.89988
rtoes 5.7743
lfemur -59.0845 2.80738 -25.4173
ltibia 47.3738
lfoot -13.2302 -12.5836
ltoes 10.3689
674
root 30.7791 15.4145 -11.5868 -152.663 -52.7605 -180.296
lowerback 28.9414 -0.345808 7.35136
upperback 1.406 1.54984 -0.370593
thorax -13.5132 0.103444 -4.95813
lowerneck 5.88512 17.1655 7.55527
upperneck -12.0096 22.7215 -13.6246
head -2.06452 11.665 -5.54685
rclavicle -2.98177e-014 2.46493e-014
rhumerus -50.5455 -0.700343 -85.9347
rradius 75.2216
rwrist -3.84682
rhand -25.0899 3.89101
rfingers 7.12502
rthumb 1.42478 -26.084
lclavicle -2.98177e-014 2.46493e-014
lhumerus -61.6254 -29.0983 94.5779
lradius 76.5685
lwrist 36.8341
lhand -27.1897 -6.72691
lfingers 7.12502
lthumb -0.603274 23.252
rfemur -65.4375 -0.959659 20.1241
rtibia 57.3891
rfoot -18.5005 -7.93374
rtoes 5.78957
lfemur -59.4604 2.78032 -25.4112
ltibia 47.7143
lfoot -13.2453 -12.7122
ltoes 10.5739
675
root 30.7858 15.4011 -11.5986 -152.53 -52.9316 -180.321
lowerback 29.0057 -0.363751 7.39328
upperback 1.4716 1.53648 -0.367743
thorax -13.467 0.0964265 -4.97098
lowerneck 5.87778 17.1505 7.53934
upperneck -12.0721 22.6951 -13.6527
head -2.08285 11.6539 -5.55712
rclavicle 5.84427e-014 3.18055e-015
rhumerus -50.3275 -0.664788 -85.9482
rradius 74.9091
rwrist -3.98998
rhand -25.1431 3.90826
rfingers 7.12502
rthumb 1.3734 -26.0671
lclavicle 5.84427e-014 3.18055e-015
lhumerus -61.3046 -29.0874 94.5258
lradius 76.2399
lwrist 36.9878
lhand -27.1312 -6.90614
lfingers 7.12502
lthumb -0.546774 23.0729
rfemur -65.686 -1.04495 20.2128
rtibia 57.6453
rfoot -18.6239 -7.95977
rtoes 5.81643
lfemur -59.7706 2.72491 -25.374
ltibia 48.0115
lfoot -13.2579 -12.8103
ltoes 10.7903
676
root 30.791 15.3894 -11.6099 -152.438 -53.0884 -180.316
lowerback 29.0654 -0.378374 7.447
upperback 1.53555 1.5315 -0.361386
thorax -13.4191 0.0926242 -4.9895
lowerneck 5.86918 17.1345 7.5308
upperneck -12.137 22.667 -13.6891
head -2.09997 11.642 -5.57043
rclavicle -1.41137e-013 -4.37326e-014
rhumerus -50.1247 -0.605796 -85.9541
rradius 74.6078
rwrist -4.1144
rhand -25.1843 3.92115
rfingers 7.12502
rthumb 1.33357 -26.0544
lclavicle -1.41137e-013 -4.37326e-014
lhumerus -60.9993 -29.0784 94.4783
lradius 75.9549
lwrist 37.0721
lhand -27.0339 -7.10595
lfingers 7.12502
lthumb -0.45286 22.8733
rfemur -65.8916 -1.13636 20.3243
rtibia 57.8618
rfoot -18.7247 -7.97067
rtoes 5.82287
lfemur -60.0355 2.65368 -25.3055
ltibia 48.275
lfoot -13.2829 -12.8672
ltoes 10.9681
